<?xml version="1.0" encoding="utf-8"?>
<!-- Generator: Adobe Illustrator 19.0.1, SVG Export Plug-In . SVG Version: 6.00 Build 0)  -->
<svg version="1.1" id="Layer_1" xmlns="http://www.w3.org/2000/svg" xmlns:xlink="http://www.w3.org/1999/xlink" x="0px" y="0px"
	 viewBox="0 0 58 58" style="enable-background:new 0 0 58 58;" xml:space="preserve">
<style type="text/css">
	.st0{fill:#FFFFFF;}
</style>
<g>
	<path class="st0" d="M56,8.2h-3.2V5c0-0.4-0.3-0.8-0.8-0.8h-6h-6h-6c-2.1,0-4,1.2-5,2.9c-1-1.7-2.9-2.9-5-2.9H6
		C5.6,4.2,5.2,4.6,5.2,5v3.2H2C1.6,8.2,1.2,8.6,1.2,9v38c0,0.4,0.3,0.8,0.8,0.8h19c3.3,0,7.2,0.9,7.2,5.2c0,0.4,0.3,0.8,0.8,0.8
		s0.8-0.3,0.8-0.8c0-4.3,3.9-5.2,7.2-5.2h19c0.4,0,0.8-0.3,0.8-0.8V9C56.8,8.6,56.4,8.2,56,8.2z M45.2,5.7v11l-1.7-2.2
		c-0.1-0.2-0.4-0.3-0.6-0.3s-0.5,0.1-0.6,0.3l-1.7,2.2v-11H45.2z M34,5.7h5.2V19c0,0.3,0.2,0.6,0.5,0.7c0.3,0.1,0.6,0,0.8-0.3
		l2.4-3.2l2.4,3.2c0.1,0.2,0.4,0.3,0.6,0.3c0.1,0,0.2,0,0.2,0c0.3-0.1,0.5-0.4,0.5-0.7V5.7h4.5v36.5H37c-3.3,0-5.8,0.9-7.2,2.5V10
		C29.8,7.7,31.7,5.7,34,5.7z M6.8,5.7H24c2.3,0,4.2,1.9,4.2,4.2v34.8c-1.5-1.6-3.9-2.5-7.2-2.5H6.8V5.7z M21,46.3H2.8V9.7h2.5V43
		c0,0.4,0.3,0.8,0.8,0.8h15c3.2,0,7.1,0.9,7.2,5C26.8,47.1,24.3,46.3,21,46.3z M55.2,46.3H37c-3.3,0-5.8,0.9-7.2,2.5
		c0.1-4.1,4-5,7.2-5h15c0.4,0,0.8-0.3,0.8-0.8V9.7h2.5V46.3z"/>
	<path class="st0" d="M16,13.7h3c0.4,0,0.8-0.3,0.8-0.8s-0.3-0.8-0.8-0.8h-3c-0.4,0-0.8,0.3-0.8,0.8S15.6,13.7,16,13.7z"/>
	<path class="st0" d="M12,19.7h11c0.4,0,0.8-0.3,0.8-0.8s-0.3-0.8-0.8-0.8H12c-0.4,0-0.8,0.3-0.8,0.8S11.6,19.7,12,19.7z"/>
	<path class="st0" d="M12,25.8h11c0.4,0,0.8-0.3,0.8-0.8s-0.3-0.8-0.8-0.8H12c-0.4,0-0.8,0.3-0.8,0.8S11.6,25.8,12,25.8z"/>
	<path class="st0" d="M12,31.8h11c0.4,0,0.8-0.3,0.8-0.8s-0.3-0.8-0.8-0.8H12c-0.4,0-0.8,0.3-0.8,0.8S11.6,31.8,12,31.8z"/>
	<path class="st0" d="M12,37.8h11c0.4,0,0.8-0.3,0.8-0.8s-0.3-0.8-0.8-0.8H12c-0.4,0-0.8,0.3-0.8,0.8S11.6,37.8,12,37.8z"/>
	<path class="st0" d="M35,25.8h11c0.4,0,0.8-0.3,0.8-0.8s-0.3-0.8-0.8-0.8H35c-0.4,0-0.8,0.3-0.8,0.8S34.6,25.8,35,25.8z"/>
	<path class="st0" d="M35,31.8h11c0.4,0,0.8-0.3,0.8-0.8s-0.3-0.8-0.8-0.8H35c-0.4,0-0.8,0.3-0.8,0.8S34.6,31.8,35,31.8z"/>
	<path class="st0" d="M35,37.8h11c0.4,0,0.8-0.3,0.8-0.8s-0.3-0.8-0.8-0.8H35c-0.4,0-0.8,0.3-0.8,0.8S34.6,37.8,35,37.8z"/>
</g>
</svg>
